<?xml version="1.0" encoding="UTF-8" standalone="no"?>
<!-- Created with Inkscape (http://www.inkscape.org/) -->

<svg
   xmlns:dc="http://purl.org/dc/elements/1.1/"
   xmlns:cc="http://creativecommons.org/ns#"
   xmlns:rdf="http://www.w3.org/1999/02/22-rdf-syntax-ns#"
   xmlns:svg="http://www.w3.org/2000/svg"
   xmlns="http://www.w3.org/2000/svg"
   xmlns:sodipodi="http://sodipodi.sourceforge.net/DTD/sodipodi-0.dtd"
   xmlns:inkscape="http://www.inkscape.org/namespaces/inkscape"
   width="1000"
   height="1000"
   viewBox="0 0 264.58333 264.58334"
   version="1.1"
   id="svg8"
   inkscape:version="0.92.3 (2405546, 2018-03-11)"
   sodipodi:docname="logo.svg">
  <defs
     id="defs2" />
  <sodipodi:namedview
     id="base"
     pagecolor="#ffffff"
     bordercolor="#666666"
     borderopacity="1.0"
     inkscape:pageopacity="0.0"
     inkscape:pageshadow="2"
     inkscape:zoom="0.7"
     inkscape:cx="555.93352"
     inkscape:cy="763.05772"
     inkscape:document-units="mm"
     inkscape:current-layer="layer1"
     showgrid="true"
     showguides="true"
     inkscape:guide-bbox="true"
     units="px"
     inkscape:window-width="1366"
     inkscape:window-height="742"
     inkscape:window-x="0"
     inkscape:window-y="0"
     inkscape:window-maximized="1">
    <sodipodi:guide
       position="115.80544,210.80678"
       orientation="0,1"
       id="guide1306"
       inkscape:locked="false" />
    <inkscape:grid
       type="xygrid"
       id="grid1308"
       empspacing="100" />
    <sodipodi:guide
       position="52.916667,185.20833"
       orientation="1,0"
       id="guide1310"
       inkscape:locked="false" />
  </sodipodi:namedview>
  <metadata
     id="metadata5">
    <rdf:RDF>
      <cc:Work
         rdf:about="">
        <dc:format>image/svg+xml</dc:format>
        <dc:type
           rdf:resource="http://purl.org/dc/dcmitype/StillImage" />
        <dc:title></dc:title>
      </cc:Work>
    </rdf:RDF>
  </metadata>
  <g
     inkscape:label="Layer 1"
     inkscape:groupmode="layer"
     id="layer1"
     transform="translate(0,-32.41665)">
    <g
       id="g1146"
       transform="matrix(0.26458333,0,0,0.26458333,163.11563,48.079984)">
	<path
   id="path1104"
   d="m 244.9,107.9 c -7.9,0 -14.3,6.4 -14.3,14.3 v 21.7 h -1.8 v -27.2 c 0,-10.5 -8.5,-19 -19,-19 -10.5,0 -19,8.5 -19,19 v 27.2 h -3.5 L 190.8,40 c 0.4,-10.5 -7.9,-19.3 -18.4,-19.7 -10.5,-0.4 -19.3,7.9 -19.7,18.4 l -3.6,105.2 H 148 c 0,-0.5 -0.1,-1.1 -0.2,-1.6 L 132.7,50 C 131,39.6 121.2,32.6 110.8,34.3 v 0 C 100.4,36 93.4,45.8 95.1,56.2 l 14.4,87.7 v 4.2 c -7.3,0 -13.8,4.8 -15.9,11.8 l -6,20 c -3.8,12.6 -1.4,26.2 6.4,36.7 l 21.6,30.2 c 8.2,14.4 23.7,24.2 41.4,24.2 h 54.5 c 26.3,0 47.6,-21.3 47.6,-47.6 V 122.1 c 0,-7.9 -6.4,-14.2 -14.2,-14.2 z"
   class="st0"
   inkscape:connector-curvature="0"
   style="fill:#f0c6bf" />

	<g
   id="g1108">
		<path
   id="path1106"
   d="m 244.9,107.9 c -7.9,0 -14.3,6.4 -14.3,14.3 v 14.4 c 0,-7.9 6.4,-14.3 14.3,-14.3 7.9,0 14.3,6.4 14.3,14.3 v -14.4 c -0.1,-8 -6.5,-14.3 -14.3,-14.3 z"
   class="st1"
   inkscape:connector-curvature="0"
   style="fill:#f2e1de" />

	</g>

	<g
   id="g1112">
		<path
   id="path1110"
   d="m 209.8,97.5 c -10.5,0 -19,8.5 -19,19 V 131 c 0,-10.5 8.5,-19 19,-19 10.5,0 19,8.5 19,19 v -14.4 c 0,-10.5 -8.5,-19.1 -19,-19.1 z"
   class="st1"
   inkscape:connector-curvature="0"
   style="fill:#f2e1de" />

	</g>

	<g
   id="g1116">
		<path
   id="path1114"
   d="M 97.6,70.5 C 95.9,60.1 102.9,50.3 113.3,48.6 123.4,47 133,53.7 135,63.8 L 132.7,50 C 131,39.6 121.2,32.6 110.8,34.3 100.4,36 93.4,45.8 95.1,56.2 Z"
   class="st1"
   inkscape:connector-curvature="0"
   style="fill:#f2e1de" />

	</g>

	<g
   id="g1120">
		<path
   id="path1118"
   d="m 172.4,20.3 c -10.5,-0.4 -19.3,7.9 -19.7,18.4 l -0.5,13.7 c 0.7,-10.1 9.4,-18 19.6,-17.6 10.5,0.4 18.7,9.2 18.4,19.7 l 0.5,-14.4 c 0.5,-10.7 -7.8,-19.5 -18.3,-19.8 z"
   class="st1"
   inkscape:connector-curvature="0"
   style="fill:#f2e1de" />

	</g>

	<g
   id="g1126">
		<g
   id="g1124">
			<path
   id="path1122"
   d="m 141.4,199.7 c -1.5,0.4 -2.9,0.8 -4.1,1.3 -0.6,0.2 -1.3,0.5 -1.9,0.8 v 14.4 c 13.6,-6.1 30.3,-3 40.8,9.3 3.8,4.5 6.3,9.8 7.4,15.3 2.1,-10.2 -0.3,-21.3 -7.4,-29.7 -9,-10.6 -22.6,-14.4 -34.8,-11.4 z"
   class="st1"
   inkscape:connector-curvature="0"
   style="fill:#f2e1de" />

		</g>

	</g>

	<g
   id="g1132">
		<g
   id="g1130">
			<path
   id="path1128"
   d="m 87.6,194.3 6,-20 c 2.1,-7 8.6,-11.8 15.9,-11.8 h 68.1 c 6,0 11.1,3.6 13.4,8.8 0.8,-2.8 1.2,-5.7 1.2,-8.7 0,-8 -6.5,-14.5 -14.5,-14.5 h -68.1 c -7.3,0 -13.8,4.8 -15.9,11.8 l -6,20 c -1.9,6.3 -2.2,12.9 -1.1,19.2 0.2,-1.7 0.6,-3.3 1,-4.8 z"
   class="st1"
   inkscape:connector-curvature="0"
   style="fill:#f2e1de" />

		</g>

	</g>

	<g
   id="g1142">
		<path
   id="path1134"
   d="m 175.6,271 c 0.1,-0.1 0.2,-0.2 0.2,-0.2 7.3,-8.4 9.9,-19.6 7.7,-30 -1.2,5.6 -3.7,11 -7.7,15.6 -13.4,15.4 -41.8,10.5 -56,-3.7 l -4.2,-5.9 c 4.5,8 11.2,14.5 19.4,18.8 -0.2,-0.1 -0.5,-0.2 -0.7,-0.3 v 74.6 h 100 v -74.6 c -6.8,3.7 -14.5,5.8 -22.8,5.8 h -35.9 z"
   class="st2"
   inkscape:connector-curvature="0"
   style="fill:#e99f96" />

		<path
   id="path1136"
   d="m 243.9,164.1 c -7.6,-0.5 -13.3,-7.1 -13.3,-14.7 v 14.4 c 0,7.6 5.7,14.2 13.3,14.7 8.3,0.5 15.2,-6 15.2,-14.2 v -14.4 c 0,8.2 -6.9,14.8 -15.2,14.2 z"
   class="st2"
   inkscape:connector-curvature="0"
   style="fill:#e99f96" />

		<path
   id="path1138"
   d="m 208.8,178.6 c 10.9,0.5 20,-8.2 20,-19 v -14.4 c 0,10.8 -9,19.5 -20,19 -10.2,-0.5 -18.1,-9.3 -18.1,-19.6 V 159 c 0,10.3 7.9,19.1 18.1,19.6 z"
   class="st2"
   inkscape:connector-curvature="0"
   style="fill:#e99f96" />

		<path
   id="path1140"
   d="m 135.3,201.7 c 12.1,-5.4 26.5,-3.5 36.9,5.5 11.7,-5 19.8,-16.6 19.8,-30.1 0,-2 -0.4,-4 -1.2,-5.7 -3.8,13.9 -16.5,24.1 -31.6,24.1 h -46.8 l 4.4,6.3 h 18.5 z"
   class="st2"
   inkscape:connector-curvature="0"
   style="fill:#e99f96" />

	</g>

	<path
   id="path1144"
   d="m 244.9,104.2 c -5.3,0 -10.1,2.3 -13.4,6 -2.7,-9.4 -11.4,-16.3 -21.7,-16.3 -7,0 -13.3,3.2 -17.5,8.3 L 194.4,40 C 194.8,27.5 185,17 172.5,16.6 160,16.2 149.5,26 149.1,38.5 l -2.5,74.1 -10.3,-63.2 c -1,-6 -4.2,-11.2 -9.1,-14.7 -4.9,-3.5 -10.9,-4.9 -16.9,-4 -6,1 -11.2,4.2 -14.7,9.1 -3.5,4.9 -4.9,10.9 -4,16.9 l 14.3,87.4 v 0.7 c -7.4,1.3 -13.5,6.6 -15.7,14 l -6,20 c -4.1,13.6 -1.5,28.5 6.9,39.8 l 21.5,30.1 c 4.4,7.7 10.6,14 18.1,18.6 v 72.5 c 0,2 1.6,3.6 3.6,3.6 h 100 c 2,0 3.6,-1.6 3.6,-3.6 v -72.5 c 15.4,-9.2 24.8,-25.9 24.8,-43.9 V 122.1 c 0,-9.8 -8,-17.9 -17.8,-17.9 z m -50.6,12.4 c 0,-8.5 6.9,-15.4 15.4,-15.4 8.5,0 15.4,6.9 15.4,15.4 v 28.6 c 0,4.3 -1.7,8.2 -4.8,11.2 -3.1,2.9 -7.1,4.4 -11.4,4.2 -8.1,-0.4 -14.7,-7.5 -14.7,-16 v -28 z M 156.4,38.8 c 0.3,-8.5 7.5,-15.2 15.9,-14.9 8.5,0.3 15.2,7.4 14.9,15.9 l -3.5,103.9 c 0,0.7 0.2,1.4 0.5,2 -2.1,-0.8 -4.3,-1.3 -6.6,-1.3 h -24.9 c 0,-0.2 0.1,-0.3 0.1,-0.5 z M 98.7,55.5 C 98,51.4 99,47.3 101.4,44 c 2.4,-3.3 6,-5.6 10,-6.2 4.1,-0.7 8.2,0.3 11.5,2.7 3.3,2.4 5.6,6 6.2,10 l 15.1,92.3 c 0.1,0.4 0.1,0.9 0.1,1.3 0,0.1 0,0.2 0.1,0.3 H 113 v -0.6 c 0,-0.2 0,-0.4 0,-0.6 z M 232.6,262 c -1.2,0.6 -1.9,1.8 -1.9,3.2 v 71 h -92.8 v -71 c 0,-1.3 -0.7,-2.5 -1.9,-3.2 -7.2,-3.9 -13.2,-9.8 -17.3,-17 -0.1,-0.1 -0.1,-0.2 -0.2,-0.3 L 96.8,214.4 C 89.7,204.8 87.5,192.3 91,180.9 l 6,-20 c 1.7,-5.5 6.6,-9.2 12.4,-9.2 h 68.1 c 6,0 10.9,4.9 10.9,10.9 0,16.1 -13.1,29.2 -29.2,29.2 h -44.7 c -2,0 -3.6,1.6 -3.6,3.6 0,2 1.6,3.6 3.6,3.6 H 130 l 2,4.3 c 0.8,1.8 2.9,2.5 4.7,1.7 12.8,-5.7 27.5,-2.3 36.6,8.4 9.9,11.6 9.8,29.1 -0.2,40.6 -1.3,1.5 -1.1,3.8 0.4,5.1 0.7,0.6 1.5,0.9 2.4,0.9 1,0 2,-0.4 2.7,-1.2 12.3,-14.2 12.4,-35.7 0.3,-50 -3.8,-4.5 -8.4,-7.9 -13.4,-10.2 17.1,-2.9 30.2,-17.8 30.3,-35.7 3.6,2.9 8.1,4.8 13,5 0.4,0 0.7,0 1.1,0 5.8,0 11.4,-2.2 15.6,-6.3 1.3,-1.3 2.4,-2.7 3.4,-4.1 2.7,5.8 8.3,9.9 14.9,10.4 0.4,0 0.8,0 1.2,0 3.9,0 7.6,-1.2 10.6,-3.5 v 59.1 c -0.1,16 -8.9,30.8 -23,38.5 z m 22.9,-112.1 c 0,3 -1.2,5.7 -3.4,7.8 -2.2,2 -5,3.1 -8,2.9 -5.6,-0.4 -9.9,-5.2 -9.9,-11.1 v -27.3 c 0,-5.9 4.8,-10.7 10.7,-10.7 5.9,0 10.7,4.8 10.7,10.7 v 27.7 z"
   class="st3"
   inkscape:connector-curvature="0"
   style="fill:#540836" />

</g>
    <g
       id="g1206"
       transform="matrix(0.26458333,0,0,0.26458333,81.967917,47.4979)">
	<path
   id="path1180"
   d="M 261.1,142.9 V 84.2 c 0,-7.9 -6.4,-14.3 -14.3,-14.3 -7.9,0 -14.3,6.4 -14.3,14.3 v 58.7 h -1.8 V 56 c 0,-10.5 -8.5,-19 -19,-19 v 0 c -10.5,0 -19,8.5 -19,19 v 87 h -2.5 V 37.6 c 0,-10.5 -8.5,-19 -19,-19 v 0 c -10.5,0 -19,8.5 -19,19 v 105.3 h -2.5 V 50.1 c 0,-10.5 -8.5,-19 -19,-19 -10.5,0 -19,8.5 -19,19 v 92.8 0 32.4 l -3.4,-3.4 c -12.8,-12.8 -33.6,-12.8 -46.4,0 -5.7,5.7 -5.7,14.9 0,20.6 l 65.1,65.1 c 3.2,3.2 6.9,5.7 10.9,7.4 6.4,3.2 13.7,5.1 21.3,5.1 h 54.5 c 26.3,0 47.6,-21.3 47.6,-47.6 z"
   class="st0"
   inkscape:connector-curvature="0"
   style="fill:#f0c6bf" />

	<path
   id="path1182"
   d="m 213.5,270.1 h -35.6 c 0.3,-0.3 0.6,-0.6 0.8,-1 6.6,-8.3 8.8,-18.9 6.8,-28.9 -1.1,5.2 -3.3,10.1 -6.8,14.5 -10.3,12.8 -27.2,16.3 -41.1,10.3 -0.5,-0.2 -0.9,-0.4 -1.4,-0.6 V 339 h 100 v -74.7 c -6.7,3.7 -14.4,5.8 -22.7,5.8 z"
   class="st1"
   inkscape:connector-curvature="0"
   style="fill:#e99f96" />

	<g
   id="g1186">
		<path
   id="path1184"
   d="m 61.7,186.4 v 0 c 12.8,-12.8 33.6,-12.8 46.4,0 l 29.2,29.2 c 13.8,-6.1 30.8,-2.9 41.2,9.8 3.6,4.4 5.9,9.5 7,14.8 2.1,-10.1 -0.2,-20.9 -7,-29.2 -10.4,-12.7 -27.4,-16 -41.2,-9.8 L 108.1,172 C 95.3,159.2 74.5,159.2 61.7,172 v 0 c -4.7,4.7 -5.5,11.9 -2.3,17.5 0.6,-1.1 1.4,-2.2 2.3,-3.1 z"
   class="st2"
   inkscape:connector-curvature="0"
   style="fill:#f2e1de" />

	</g>

	<g
   id="g1190">
		<path
   id="path1188"
   d="m 130.5,31.1 v 0 c -10.5,0 -19,8.5 -19,19 v 14.4 c 0,-10.5 8.5,-19 19,-19 v 0 c 10.5,0 19,8.5 19,19 V 50.1 c 0,-10.5 -8.5,-19 -19,-19 z"
   class="st2"
   inkscape:connector-curvature="0"
   style="fill:#f2e1de" />

	</g>

	<g
   id="g1194">
		<path
   id="path1192"
   d="m 246.8,69.9 c -7.9,0 -14.3,6.4 -14.3,14.3 v 14.4 c 0,-7.9 6.4,-14.3 14.3,-14.3 7.9,0 14.3,6.4 14.3,14.3 V 84.2 c 0,-7.9 -6.4,-14.3 -14.3,-14.3 z"
   class="st2"
   inkscape:connector-curvature="0"
   style="fill:#f2e1de" />

	</g>

	<g
   id="g1198">
		<path
   id="path1196"
   d="m 171.1,18.6 v 0 c -10.5,0 -19,8.5 -19,19 V 52 c 0,-10.5 8.5,-19 19,-19 v 0 c 10.5,0 19,8.5 19,19 V 37.6 c 0,-10.5 -8.5,-19 -19,-19 z"
   class="st2"
   inkscape:connector-curvature="0"
   style="fill:#f2e1de" />

	</g>

	<g
   id="g1202">
		<path
   id="path1200"
   d="m 211.7,36.9 v 0 c -10.5,0 -19,8.5 -19,19 v 14.4 c 0,-10.5 8.5,-19 19,-19 v 0 c 10.5,0 19,8.5 19,19 V 56 c 0.1,-10.5 -8.5,-19.1 -19,-19.1 z"
   class="st2"
   inkscape:connector-curvature="0"
   style="fill:#f2e1de" />

	</g>

	<path
   id="path1204"
   d="m 264.7,84.2 c 0,-9.8 -8,-17.9 -17.9,-17.9 -4.8,0 -9.2,1.9 -12.5,5.1 V 56 c 0,-12.5 -10.2,-22.6 -22.6,-22.6 -7.3,0 -13.8,3.5 -18,8.9 v -4.6 c 0,-12.5 -10.2,-22.6 -22.6,-22.6 -12.1,0 -22,9.5 -22.6,21.4 -4.1,-5.4 -10.7,-8.9 -18,-8.9 -12.5,0 -22.6,10.2 -22.6,22.6 V 167 c -14.3,-11.6 -35.4,-10.8 -48.7,2.5 -3.4,3.4 -5.3,8 -5.3,12.8 0,4.8 1.9,9.4 5.3,12.8 l 65.1,65.1 c 0.2,0.2 0.5,0.4 0.8,0.6 2.4,2.1 4.9,4 7.6,5.6 V 339 c 0,2 1.6,3.6 3.6,3.6 h 100 c 2,0 3.6,-1.6 3.6,-3.6 v -72.6 c 15.4,-9.2 24.8,-25.9 24.8,-43.9 z m -30.2,176.9 c -1.2,0.6 -1.9,1.8 -1.9,3.2 v 71.1 h -92.8 v -71.1 c 0,-1.3 -0.7,-2.5 -1.9,-3.2 -3.1,-1.7 -6,-3.8 -8.7,-6.2 -0.2,-0.2 -0.3,-0.3 -0.5,-0.4 L 64.3,190 c -2.1,-2.1 -3.2,-4.8 -3.2,-7.7 0,-2.9 1.1,-5.7 3.2,-7.7 11.4,-11.4 29.9,-11.4 41.3,0 l 3.4,3.4 v 0 l 25.8,25.8 c 1.1,1.1 2.7,1.4 4,0.7 12.8,-5.7 28,-2.1 36.9,8.8 9.3,11.3 9.4,27.7 0.2,39.1 -1.2,1.6 -1,3.8 0.6,5.1 1.6,1.2 3.8,1 5.1,-0.6 11.2,-14 11.1,-34.3 -0.3,-48.2 C 170.9,196 153.4,191.3 138.2,196.9 L 115.1,173.8 V 50.1 c 0,-8.5 6.9,-15.4 15.4,-15.4 8.5,0 15.4,6.9 15.4,15.4 v 92.8 c 0,2 1.6,3.6 3.6,3.6 h 2.5 c 2,0 3.6,-1.6 3.6,-3.6 V 37.6 c 0,-8.5 6.9,-15.4 15.4,-15.4 8.5,0 15.4,6.9 15.4,15.4 v 105.3 c 0,2 1.6,3.6 3.6,3.6 h 2.5 c 2,0 3.6,-1.6 3.6,-3.6 V 56 c 0,-8.5 6.9,-15.4 15.4,-15.4 8.5,0 15.4,6.9 15.4,15.4 v 87 c 0,2 1.6,3.6 3.6,3.6 h 1.8 c 2,0 3.6,-1.6 3.6,-3.6 V 84.2 c 0,-5.9 4.8,-10.7 10.7,-10.7 5.9,0 10.7,4.8 10.7,10.7 v 138.3 c 0.2,16.1 -8.6,30.9 -22.8,38.6 z"
   class="st3"
   inkscape:connector-curvature="0"
   style="fill:#540836" />

</g>
    <g
       id="g1274"
       transform="matrix(0.26458333,0,0,0.26458333,4.5508339,47.921234)">
	<path
   id="path1232"
   d="m 244.1,106.1 c -7.9,0 -14.3,6.4 -14.3,14.3 v 21.7 H 228 v -27.2 c 0,-10.5 -8.5,-19 -19,-19 v 0 c -10.5,0 -19,8.5 -19,19 v 27.2 h -2.5 V 108 c 0,-10.5 -8.5,-19 -19,-19 v 0 c -10.5,0 -19,8.5 -19,19 v 34.1 H 147 v -30 c 0,-10.5 -8.5,-19 -19,-19 -10.5,0 -19,8.5 -19,19 v 34.6 c -7.3,0 -13.8,4.8 -15.9,11.8 l -6,20 c -3.8,12.6 -1.4,26.2 6.4,36.7 l 23.1,32.3 c 0.8,1.2 1.6,2.4 2.5,3.5 l 0.2,0.2 c 0,0 0,0 0.1,0.1 8.7,10.9 22.1,17.9 37.2,17.9 h 54.5 c 26.3,0 47.6,-21.3 47.6,-47.6 V 120.3 c -0.3,-7.8 -6.7,-14.2 -14.6,-14.2 z"
   class="st0"
   inkscape:connector-curvature="0"
   style="fill:#f0c6bf" />

	<g
   id="g1236">
		<path
   id="path1234"
   d="m 127.8,93 v 0 c -10.5,0 -19,8.5 -19,19 v 14.4 c 0,-10.5 8.5,-19 19,-19 v 0 c 10.5,0 19,8.5 19,19 V 112 c 0.1,-10.5 -8.5,-19 -19,-19 z"
   class="st1"
   inkscape:connector-curvature="0"
   style="fill:#f2e1de" />

	</g>

	<g
   id="g1240">
		<path
   id="path1238"
   d="m 168.4,88.9 c -10.5,0 -19,8.5 -19,19 v 14.4 c 0,-10.5 8.5,-19 19,-19 10.5,0 19,8.5 19,19 v -14.4 c 0.1,-10.5 -8.5,-19 -19,-19 z"
   class="st1"
   inkscape:connector-curvature="0"
   style="fill:#f2e1de" />

	</g>

	<g
   id="g1244">
		<path
   id="path1242"
   d="m 209,95.8 c -10.5,0 -19,8.5 -19,19 v 14.4 c 0,-10.5 8.5,-19 19,-19 10.5,0 19,8.5 19,19 v -14.4 c 0.1,-10.5 -8.5,-19 -19,-19 z"
   class="st1"
   inkscape:connector-curvature="0"
   style="fill:#f2e1de" />

	</g>

	<g
   id="g1250">
		<g
   id="g1248">
			<path
   id="path1246"
   d="m 140.6,198.3 c -1.5,0.4 -2.9,0.8 -4.1,1.3 -0.6,0.2 -1.3,0.5 -1.9,0.8 v 14.4 c 13.6,-6.1 30.3,-3 40.8,9.3 3.8,4.5 6.3,9.8 7.4,15.3 2.1,-10.2 -0.3,-21.3 -7.4,-29.7 -8.9,-10.6 -22.5,-14.4 -34.8,-11.4 z"
   class="st1"
   inkscape:connector-curvature="0"
   style="fill:#f2e1de" />

		</g>

	</g>

	<g
   id="g1256">
		<g
   id="g1254">
			<path
   id="path1252"
   d="m 86.9,192.9 6,-20 c 2.1,-7 8.6,-11.8 15.9,-11.8 h 68.1 c 6,0 11.1,3.6 13.4,8.8 0.8,-2.8 1.2,-5.7 1.2,-8.7 0,-8 -6.5,-14.5 -14.5,-14.5 h -68.1 c -7.3,0 -13.8,4.8 -15.9,11.8 l -6,20 c -1.9,6.3 -2.2,12.9 -1.1,19.2 0.1,-1.7 0.5,-3.3 1,-4.8 z"
   class="st1"
   inkscape:connector-curvature="0"
   style="fill:#f2e1de" />

		</g>

	</g>

	<g
   id="g1266">
		<path
   id="path1258"
   d="m 175.3,269.2 c 7.2,-8.4 9.7,-19.5 7.5,-29.8 -1.2,5.6 -3.7,11 -7.7,15.6 -13.4,15.4 -41.8,10.5 -56,-3.7 l -3.1,-4.4 c 4.3,6.9 10.4,12.7 17.6,16.6 v 76.4 h 100 v -76.5 c -6.8,3.7 -14.5,5.8 -22.8,5.8 z"
   class="st2"
   inkscape:connector-curvature="0"
   style="fill:#e99f96" />

		<path
   id="path1260"
   d="m 208.1,176.8 c 10.9,0.5 20,-8.2 20,-19 v -14.4 c 0,10.8 -9,19.5 -20,19 -10.2,-0.5 -18.1,-9.3 -18.1,-19.6 v 14.4 c 0,10.3 7.9,19.1 18.1,19.6 z"
   class="st2"
   inkscape:connector-curvature="0"
   style="fill:#e99f96" />

		<path
   id="path1262"
   d="m 134.6,200.3 c 12.1,-5.4 26.6,-3.5 37,5.5 11.6,-5 19.8,-16.6 19.8,-30.1 0,-2 -0.4,-4 -1.2,-5.7 -3.8,13.9 -16.5,24.1 -31.6,24.1 h -46.8 l 4.4,6.3 h 18.4 z"
   class="st2"
   inkscape:connector-curvature="0"
   style="fill:#e99f96" />

		<path
   id="path1264"
   d="m 243.2,162.4 c -7.6,-0.5 -13.3,-7.1 -13.3,-14.7 v 14.4 c 0,7.6 5.7,14.2 13.3,14.7 8.3,0.5 15.2,-6 15.2,-14.2 v -14.4 c 0,8.1 -6.9,14.7 -15.2,14.2 z"
   class="st2"
   inkscape:connector-curvature="0"
   style="fill:#e99f96" />

	</g>

	<g
   id="g1270">
		<path
   id="path1268"
   d="m 244.1,106.1 v 0 c -7.9,0 -14.3,6.4 -14.3,14.3 v 14.4 c 0,-7.9 6.4,-14.3 14.3,-14.3 v 0 c 7.9,0 14.3,6.4 14.3,14.3 v -14.4 c 0,-7.9 -6.4,-14.3 -14.3,-14.3 z"
   class="st1"
   inkscape:connector-curvature="0"
   style="fill:#f2e1de" />

	</g>

	<path
   id="path1272"
   d="m 244.1,102.5 c -5.3,0 -10.1,2.4 -13.4,6.1 C 228,99.2 219.3,92.2 209,92.2 c -7.8,0 -14.7,4 -18.7,10 -2.6,-9.7 -11.4,-16.8 -21.9,-16.8 -9.8,0 -18.2,6.3 -21.3,15 -4,-6.5 -11.1,-10.9 -19.3,-10.9 -12.5,0 -22.6,10.2 -22.6,22.6 v 31.3 c -7.4,1.3 -13.5,6.6 -15.7,14 l -6,20 c -4.1,13.6 -1.5,28.5 6.9,39.8 l 23.1,32.3 c 0.8,1.3 1.7,2.5 2.6,3.7 l 0.1,0.1 c 0.1,0.1 0.2,0.3 0.3,0.4 3.8,4.7 8.4,8.7 13.5,11.8 v 74.4 c 0,2 1.6,3.6 3.6,3.6 h 100 c 2,0 3.6,-1.6 3.6,-3.6 V 265.5 C 252.6,256.3 262,239.6 262,221.6 V 120.3 c 0,-9.8 -8,-17.8 -17.9,-17.8 z m -10.6,17.8 c 0,-5.9 4.8,-10.7 10.7,-10.7 5.9,0 10.7,4.8 10.7,10.7 v 27.8 c 0,3 -1.2,5.7 -3.4,7.8 -2.2,2 -5,3 -8,2.9 -5.6,-0.4 -9.9,-5.2 -9.9,-11.1 v -27.4 z m -39.9,-5.5 c 0,-8.5 6.9,-15.4 15.4,-15.4 8.5,0 15.4,6.9 15.4,15.4 v 28.6 c 0,4.3 -1.7,8.2 -4.8,11.2 -3.1,2.9 -7.1,4.5 -11.4,4.2 -8.1,-0.4 -14.7,-7.5 -14.7,-16 v -28 z M 153,107.9 c 0,-8.5 6.9,-15.4 15.4,-15.4 8.5,0 15.4,6.9 15.4,15.4 v 35.4 c 0,0.4 0,0.7 0,1.1 -2.1,-0.9 -4.5,-1.4 -7,-1.4 H 153 c 0,-0.1 0,-0.2 0,-0.2 z m -40.6,4.1 c 0,-8.5 6.9,-15.4 15.4,-15.4 8.5,0 15.4,6.9 15.4,15.4 v 31 h -30.8 c 0,-0.1 0,-0.2 0,-0.2 z m 119.5,148.2 c -1.2,0.6 -1.9,1.8 -1.9,3.2 v 72.9 h -92.8 v -72.9 c 0,-1.3 -0.7,-2.5 -1.9,-3.2 -5.2,-2.8 -9.6,-6.6 -13.3,-11.2 0,0 -0.1,-0.1 -0.1,-0.1 v 0 c 0,0 -0.1,-0.1 -0.1,-0.1 -0.8,-1 -1.6,-2.1 -2.3,-3.3 0,0 -0.1,-0.1 -0.1,-0.1 L 96.2,213 c -7.1,-9.6 -9.3,-22.1 -5.8,-33.5 l 6,-20 c 1.7,-5.5 6.6,-9.2 12.4,-9.2 h 68.1 c 6,0 10.9,4.9 10.9,10.9 0,16.1 -13.1,29.2 -29.2,29.2 h -44.7 c -2,0 -3.6,1.6 -3.6,3.6 0,2 1.6,3.6 3.6,3.6 h 15.5 l 2,4.3 c 0.8,1.8 2.9,2.5 4.7,1.7 12.8,-5.7 27.5,-2.3 36.6,8.4 9.9,11.6 9.8,29.1 -0.2,40.6 -1.3,1.5 -1.1,3.8 0.4,5.1 0.7,0.6 1.5,0.9 2.4,0.9 1,0 2,-0.4 2.7,-1.2 12.3,-14.2 12.4,-35.7 0.3,-50 -3.8,-4.5 -8.4,-7.9 -13.4,-10.2 17.2,-2.9 30.3,-17.9 30.3,-35.9 0,-0.1 0,-0.1 0,-0.2 3.6,2.9 8.1,4.8 13,5 0.4,0 0.7,0 1.1,0 5.8,0 11.4,-2.2 15.6,-6.3 1.3,-1.3 2.4,-2.7 3.4,-4.1 2.7,5.8 8.3,9.9 14.9,10.4 0.4,0 0.8,0 1.2,0 3.9,0 7.6,-1.2 10.6,-3.5 v 59.1 c -0.2,16 -9,30.8 -23.1,38.5 z"
   class="st3"
   inkscape:connector-curvature="0"
   style="fill:#540836" />

</g>
  </g>
  <style
     id="style1102"
     type="text/css">
	.st0{fill:#F0C6BF;}
	.st1{fill:#F2E1DE;}
	.st2{fill:#E99F96;}
	.st3{fill:#540836;}
</style>
  <style
     id="style1178"
     type="text/css">
	.st0{fill:#F0C6BF;}
	.st1{fill:#E99F96;}
	.st2{fill:#F2E1DE;}
	.st3{fill:#540836;}
</style>
  <style
     id="style1230"
     type="text/css">
	.st0{fill:#F0C6BF;}
	.st1{fill:#F2E1DE;}
	.st2{fill:#E99F96;}
	.st3{fill:#540836;}
</style>
</svg>
